<svg width="22" height="13" viewBox="0 0 22 13" fill="none" xmlns="http://www.w3.org/2000/svg">
<path d="M16.5 0C14.55 0 12.45 0.304028 11 1.1401C9.55 0.304028 7.45 0 5.5 0C4.05 0 2.51 0.167215 1.22 0.600455C0.49 0.851278 0 1.39093 0 2.00658V10.5802C0 11.5683 1.22 12.2979 2.48 12.0547C3.46 11.8647 4.5 11.7811 5.5 11.7811C7.06 11.7811 8.72 11.9787 10.06 12.4803C10.66 12.7084 11.34 12.7084 11.93 12.4803C13.27 11.9711 14.93 11.7811 16.49 11.7811C17.49 11.7811 18.53 11.8647 19.51 12.0547C20.77 12.3055 21.99 11.5759 21.99 10.5802V2.00658C21.99 1.39093 21.5 0.851278 20.77 0.600455C19.49 0.167215 17.95 0 16.5 0ZM20 9.67569C20 10.1545 19.42 10.5042 18.8 10.4206C18.05 10.3141 17.27 10.2685 16.5 10.2685C14.8 10.2685 12.35 10.7626 11 11.4086V2.66024C12.35 2.01418 14.8 1.52014 16.5 1.52014C17.42 1.52014 18.33 1.58855 19.2 1.73296C19.66 1.80897 20 2.12059 20 2.47783V9.67569Z" fill="url(#paint0_linear_12_95)"/>
<path d="M12.98 4.94806C12.66 4.94806 12.37 4.79605 12.27 4.55283C12.14 4.2564 12.36 3.92957 12.75 3.83836C14.29 3.45833 16.28 3.33672 18.11 3.49633C18.52 3.53433 18.82 3.81556 18.77 4.12719C18.72 4.43882 18.35 4.66684 17.94 4.62883C16.32 4.48442 14.55 4.59843 13.21 4.92526C13.13 4.93286 13.05 4.94806 12.98 4.94806Z" fill="url(#paint1_linear_12_95)"/>
<path d="M12.98 6.96991C12.66 6.96991 12.37 6.8179 12.27 6.57468C12.14 6.27825 12.36 5.95142 12.75 5.86021C14.28 5.48018 16.28 5.35857 18.11 5.51818C18.52 5.55618 18.82 5.83741 18.77 6.14904C18.72 6.46067 18.35 6.68869 17.94 6.65068C16.32 6.50627 14.55 6.62028 13.21 6.94711C13.13 6.96231 13.05 6.96991 12.98 6.96991Z" fill="url(#paint2_linear_12_95)"/>
<path d="M12.98 8.99164C12.66 8.99164 12.37 8.83963 12.27 8.59641C12.14 8.29998 12.36 7.97315 12.75 7.88194C14.28 7.50191 16.28 7.3803 18.11 7.53991C18.52 7.57791 18.82 7.85914 18.77 8.17077C18.72 8.4824 18.35 8.70282 17.94 8.67241C16.32 8.528 14.55 8.64201 13.21 8.96884C13.13 8.98404 13.05 8.99164 12.98 8.99164Z" fill="url(#paint3_linear_12_95)"/>
<defs>
<linearGradient id="paint0_linear_12_95" x1="10.995" y1="0" x2="10.995" y2="12.6514" gradientUnits="userSpaceOnUse">
<stop stop-color="#A270C9"/>
<stop offset="1" stop-color="#503763"/>
</linearGradient>
<linearGradient id="paint1_linear_12_95" x1="15.504" y1="3.42786" x2="15.504" y2="4.94806" gradientUnits="userSpaceOnUse">
<stop stop-color="#A270C9"/>
<stop offset="1" stop-color="#503763"/>
</linearGradient>
<linearGradient id="paint2_linear_12_95" x1="15.504" y1="5.44971" x2="15.504" y2="6.96991" gradientUnits="userSpaceOnUse">
<stop stop-color="#A270C9"/>
<stop offset="1" stop-color="#503763"/>
</linearGradient>
<linearGradient id="paint3_linear_12_95" x1="15.504" y1="7.47144" x2="15.504" y2="8.99164" gradientUnits="userSpaceOnUse">
<stop stop-color="#A270C9"/>
<stop offset="1" stop-color="#503763"/>
</linearGradient>
</defs>
</svg>
