<svg width="22" height="16" viewBox="0 0 22 16" fill="none" xmlns="http://www.w3.org/2000/svg">
<path d="M11.65 10.3902C11.79 10.1165 11.7 9.8049 11.42 9.59208L9.33 8.02634L9.36 8.00353C11.1 6.529 12.34 4.83404 13.07 3.04028H15.01C15.55 3.04028 16 2.69825 16 2.28781V2.27261C16 1.86217 15.55 1.52014 15.01 1.52014H9V0.76007C9 0.342031 8.55 0 8 0C7.45 0 7 0.342031 7 0.76007V1.52014H0.99C0.45 1.52014 0 1.86217 0 2.27261C0 2.69065 0.45 3.02508 0.99 3.02508H11.17C10.5 4.49961 9.44 5.89054 8 7.10665C7.19 6.43019 6.51 5.69292 5.94 4.91765C5.78 4.69723 5.49 4.56042 5.16 4.56042C4.47 4.56042 4.03 5.13047 4.37 5.58651C5 6.44539 5.77 7.26627 6.67 8.02634L2.3 11.3022C1.9 11.5987 1.9 12.0851 2.3 12.3815C2.69 12.678 3.32 12.678 3.72 12.3815L8 9.12084L10.02 10.6562C10.53 11.0438 11.4 10.8994 11.65 10.3902ZM16.5 6.08056C15.9 6.08056 15.36 6.36178 15.15 6.79502L11.48 14.2437C11.24 14.7073 11.7 15.2014 12.35 15.2014C12.74 15.2014 13.09 15.019 13.23 14.7377L14.12 12.9212H18.87L19.77 14.7377C19.91 15.0114 20.26 15.2014 20.65 15.2014C21.3 15.2014 21.76 14.7073 21.53 14.2437L17.86 6.79502C17.64 6.36178 17.1 6.08056 16.5 6.08056ZM14.88 11.401L16.5 8.10994L18.12 11.401H14.88Z" fill="url(#paint0_linear_12_84)"/>
<defs>
<linearGradient id="paint0_linear_12_84" x1="10.795" y1="0" x2="10.795" y2="15.2014" gradientUnits="userSpaceOnUse">
<stop stop-color="#A471CA"/>
<stop offset="1" stop-color="#513864"/>
</linearGradient>
</defs>
</svg>
